<?xml version="1.0" encoding="utf-8"?>
<!-- Generator: Adobe Illustrator 28.6.0, SVG Export Plug-In . SVG Version: 9.03 Build 54939)  -->
<svg version="1.1" id="círculo" xmlns="http://www.w3.org/2000/svg" xmlns:xlink="http://www.w3.org/1999/xlink" x="0px" y="0px"
	 viewBox="0 0 925.5 265.5" style="enable-background:new 0 0 925.5 265.5;" xml:space="preserve">
<style type="text/css">
	.st0{fill:#111E30;}
</style>
<g>
	<g>
		<path class="st0" d="M108.2,203.5c-7,0-13-1.1-18.1-3.4c-5.1-2.3-9.4-5.2-13-8.9l-10.5,9.9H62l8.3-39.2h4.6
			c3.6,24.7,15.1,37,34.6,37c7.6,0,14-1.6,19.2-4.7c5.2-3.1,9.2-7.1,11.9-11.8c2.7-4.7,4-9.4,4-13.9c0-5.3-1.4-9.7-4.2-13.2
			c-2.8-3.5-6.4-6.6-10.9-9.2c-4.4-2.6-9.1-5.2-14.1-7.6c-5-2.5-9.7-5.2-14.1-8.4c-4.4-3.1-8-7-10.9-11.7
			c-2.8-4.7-4.2-10.4-4.2-17.3c0-7.1,1.5-13.7,4.6-19.9c3.1-6.1,7.7-11.1,13.9-14.9c6.2-3.8,14-5.7,23.5-5.7c6.6,0,12.2,1,16.7,2.9
			c4.5,1.9,8.2,4.3,11,7.3l7.7-8.5h4.6L161,99h-4.6c0-6.7-1.1-12.6-3.4-17.7c-2.3-5-5.5-9-9.8-11.8c-4.2-2.8-9.4-4.2-15.5-4.2
			c-4.4,0-8.9,0.9-13.5,2.6c-4.6,1.7-8.5,4.2-11.6,7.5c-3.1,3.3-4.7,7.4-4.7,12.1c0,4.7,1.4,8.6,4.3,11.8c2.9,3.2,6.6,6,11,8.5
			c4.5,2.5,9.3,4.9,14.4,7.5c5.1,2.5,9.9,5.5,14.4,8.9c4.5,3.4,8.2,7.7,11,12.7c2.9,5,4.3,11.3,4.3,18.8c0,9.4-2.2,17.8-6.5,24.9
			c-4.4,7.2-10.2,12.8-17.6,16.8C125.9,201.5,117.5,203.5,108.2,203.5z"/>
		<path class="st0" d="M171.7,203.5c-4.5,0-8-1.2-10.5-3.5c-2.5-2.3-3.7-5.4-3.7-9.2c0-1,0.1-2,0.3-2.9c0.2-1,0.3-1.9,0.5-2.8
			l21.2-87.6h19.7l-21.5,85.7c-0.4,1.6-0.6,2.9-0.7,3.9c-0.1,1-0.2,1.8-0.2,2.4c0,3.1,1.3,4.6,4,4.6c2.9,0,6.1-1.8,9.6-5.3
			c3.4-3.6,7.2-9.6,11.4-18.2l3.7,1.7c-2.3,5.2-5.1,10.1-8.4,14.9c-3.3,4.8-7,8.7-11.1,11.8C181.7,201.9,176.9,203.5,171.7,203.5z
			 M161.2,122.9v-4.6h49.1v4.6H161.2z"/>
		<path class="st0" d="M225.4,203.3c-4.7,0-8.7-1.2-12.1-3.6c-3.4-2.4-5.2-6.2-5.2-11.5c0-2.3,0.4-5,1.1-8.1l15.1-61.8h19.1
			l-15.8,66.1c-0.1,0.9-0.3,1.7-0.5,2.5c-0.2,0.8-0.3,1.6-0.3,2.3c0,2.1,0.6,3.6,1.9,4.6c1.3,1,2.9,1.5,4.9,1.5
			c2.8,0,5.7-0.9,8.6-2.6c2.9-1.7,5.8-4.1,8.5-7.3c2.7-3.1,5.1-6.7,7.3-10.8c2.1-4,3.9-8.5,5.2-13.2l-4,22.1H258
			c-3.8,5-8.4,9.6-13.9,13.7C238.6,201.2,232.4,203.3,225.4,203.3z M209.8,122.9v-4.6H239v4.6H209.8z M273.6,203.3
			c-2.3,0-4.7-0.5-7-1.6c-2.3-1-4.2-2.8-5.7-5.3c-1.5-2.5-2.2-6-2.2-10.4c0-1.7,0.2-3.7,0.5-5.9c0.3-2.2,0.8-4.7,1.4-7.4l13.1-54.5
			h18.8L278.6,174c-0.9,3.8-1.5,7-2,9.7c-0.5,2.6-0.7,4.8-0.7,6.3c0,3.7,1.2,5.5,3.7,5.5c2.6,0,5.4-1.9,8.6-5.8
			c3.1-3.9,6.4-9.4,9.8-16.5l3.7,1.7c-2.5,5.9-5.1,10.9-7.9,15.2c-2.8,4.2-5.9,7.5-9.1,9.8C281.3,202.2,277.7,203.3,273.6,203.3z"/>
		<path class="st0" d="M322.7,203.5c-5.4,0-10.4-1.3-15.1-4c-4.7-2.6-8.4-6.4-11.2-11.4c-2.8-5-4.2-11-4.2-18.1
			c0-7.1,1.4-13.9,4.3-20.4c2.9-6.5,6.7-12.3,11.4-17.3c4.7-5,9.9-9,15.6-11.9c5.7-2.9,11.4-4.3,17-4.3c5.4,0,9.6,1.3,12.5,3.8
			c2.9,2.5,5.2,5.7,6.8,9.7h1.3l-4.2,16.7c0.2-1.2,0.4-2.4,0.5-3.5c0.1-1.1,0.1-2.1,0.1-2.9c0-5.2-1.5-9.5-4.4-13.1
			c-2.9-3.6-6.6-5.3-10.9-5.3c-3.7,0-7.1,1.4-10.1,4c-3.1,2.7-5.8,6.2-8.1,10.6c-2.3,4.4-4.3,9.1-6,14.3c-1.7,5.2-2.9,10.2-3.7,15.3
			c-0.8,5-1.2,9.5-1.2,13.4c0,6.6,1.1,11.4,3.4,14.3c2.3,2.9,5.5,4.3,9.7,4.3c2.3,0,4.9-0.6,7.7-1.9c2.8-1.3,5.7-3.9,8.7-7.9
			c3-4,5.9-10,8.6-17.9l-2.2,18.4h-1.3c-2.3,4.3-5.6,7.9-9.8,10.9C333.8,202,328.7,203.5,322.7,203.5z M362.5,203.5
			c-4.2,0-7.5-1.2-10.1-3.7c-2.6-2.5-3.9-6.6-3.9-12.3c0-1.8,0.2-4,0.5-6.4c0.3-2.5,0.8-5.2,1.6-8.1l26.3-110.6h19.7l-29.8,120.9
			c-0.4,1.6-0.6,2.9-0.7,3.9c-0.1,1-0.2,1.8-0.2,2.4c0,3.1,1.4,4.6,4.2,4.6c3.1,0,6.3-1.8,9.8-5.3c3.5-3.6,7.5-9.6,11.9-18.2
			l3.7,1.7c-2.7,5.4-5.6,10.5-8.7,15.3s-6.7,8.6-10.6,11.6C372.2,202,367.6,203.5,362.5,203.5z M358.4,66.9v-4.6h35.9v4.6H358.4z"/>
		<path class="st0" d="M393.2,122.9v-4.6h28.5v4.6H393.2z M401.7,203.5c-4.5,0-8-1.2-10.5-3.5c-2.5-2.3-3.7-5.4-3.7-9.2
			c0-1,0.1-2,0.3-2.9c0.2-1,0.3-1.9,0.5-2.8l16-66.8h19.7l-16.4,65c-0.4,1.6-0.6,2.9-0.7,3.9c-0.1,1-0.2,1.8-0.2,2.4
			c0,3.1,1.3,4.6,4,4.6c2.9,0,6.1-1.8,9.6-5.3c3.4-3.6,7.2-9.6,11.4-18.2l3.7,1.7c-2.3,5.2-5.1,10.1-8.4,14.9
			c-3.3,4.8-7,8.7-11.1,11.8C411.7,201.9,406.9,203.5,401.7,203.5z M420.3,91.1c-3.4,0-6.3-1.2-8.7-3.6c-2.4-2.4-3.6-5.3-3.6-8.7
			c0-3.6,1.2-6.5,3.6-8.9c2.4-2.4,5.3-3.6,8.7-3.6c3.6,0,6.5,1.2,8.9,3.6c2.4,2.4,3.6,5.4,3.6,8.9c0,3.4-1.2,6.3-3.6,8.7
			C426.8,89.9,423.8,91.1,420.3,91.1z"/>
		<path class="st0" d="M458,203.5c-6.7,0-12.6-1.5-17.7-4.6c-5-3.1-9-7.2-11.8-12.4c-2.8-5.2-4.2-11-4.2-17.4
			c0-6.5,1.4-12.9,4.3-19.2c2.9-6.3,6.8-12,11.7-17.1c4.9-5.1,10.5-9.1,16.7-12.1c6.3-3,12.8-4.5,19.7-4.5c6.7,0,12.6,1.5,17.7,4.4
			c5,2.9,9,6.9,11.8,12c2.8,5,4.2,10.7,4.2,17.1c0,6.5-1.4,12.9-4.3,19.3c-2.9,6.4-6.8,12.2-11.7,17.4c-4.9,5.2-10.5,9.4-16.7,12.5
			C471.4,201.9,464.8,203.5,458,203.5z M458.3,198.9c5,0,9.5-1.7,13.3-5.2s7.1-8,9.8-13.6c2.6-5.6,4.6-11.7,6-18.2
			c1.3-6.6,2-12.9,2-19c0-6.5-1-11.8-2.9-15.9c-1.9-4.1-5.5-6.2-10.8-6.2c-4.9,0-9.3,1.8-13.1,5.3c-3.8,3.6-7,8.2-9.7,13.9
			c-2.6,5.7-4.6,11.9-6,18.6c-1.4,6.7-2,13.1-2,19.2c0,6.9,1,12.1,2.9,15.7C450,197.1,453.4,198.9,458.3,198.9z"/>
	
	</g>
	<g>
		<path class="st0" d="M547.6,201.4V69.7h20.2v113.1h60.4v18.7H547.6z"/>
		<path class="st0" d="M631.6,201.4l49.3-74.3l2.2-0.1l35.6-57.3h22.4l-45.4,69.9h-1.8l-39.7,61.8H631.6z M722.6,201.4l-40.8-62.2
			l-1.4-0.1l-46.1-69.5h23.3l37.4,57.3h1.8l49.6,74.4H722.6z"/>
		<path class="st0" d="M751.6,201.4V69.7h45.1c20.2,0,36.3,6,48.5,18c12.1,12,18.2,27.9,18.2,47.8c0,19.8-6.1,35.8-18.4,47.8
			c-12.2,12.1-28.4,18.1-48.3,18.1H751.6z M771.9,183.3h24.4c14.2,0,25.4-4.3,33.8-12.8c8.4-8.5,12.6-20.1,12.6-34.6v-0.1
			c0-14.7-4.1-26.3-12.4-34.9c-8.2-8.6-19.6-12.9-34-12.9h-24.4V183.3z"/>
	</g>
</g>
</svg>
